HIERARCHY
ROOT Hips
{
	OFFSET 0.000000 0.000000 0.000000 
	CHANNELS 6 Xposition Yposition Zposition Zrotation Yrotation Xrotation
	JOINT LeftUpLeg
	{
		OFFSET 1.363060 -1.794630 0.839290 
		CHANNELS 3 Zrotation Yrotation Xrotation
		JOINT LeftLeg
		{
			OFFSET 2.448110 -6.726130 0.000000 
			CHANNELS 3 Zrotation Yrotation Xrotation
			JOINT LeftFoot
			{
				OFFSET 2.562200 -7.039590 0.000000 
				CHANNELS 3 Zrotation Yrotation Xrotation
				JOINT LeftToeBase
				{
					OFFSET 0.157640 -0.433110 2.322550 
					CHANNELS 3 Zrotation Yrotation Xrotation
					End Site
					{
						OFFSET 0.000000 0.000000 0.000000 
					}
				}
			}
		}
	}
	JOINT RightUpLeg
	{
		OFFSET -1.305520 -1.794630 0.839290 
		CHANNELS 3 Zrotation Yrotation Xrotation
		JOINT RightLeg
		{
			OFFSET -2.542530 -6.985550 0.000000 
			CHANNELS 3 Zrotation Yrotation Xrotation
			JOINT RightFoot
			{
				OFFSET -2.568260 -7.056230 0.000000 
				CHANNELS 3 Zrotation Yrotation Xrotation
				JOINT RightToeBase
				{
					OFFSET -0.164730 -0.452590 2.363150 
					CHANNELS 3 Zrotation Yrotation Xrotation
					End Site
					{
						OFFSET 0.000000 0.000000 0.000000 
					}
				}
			}
		}
	}
	JOINT Spine
	{
		OFFSET 0.028270 2.035590 -0.193380 
		CHANNELS 3 Zrotation Yrotation Xrotation
		JOINT Spine1
		{
			OFFSET 0.056720 2.048850 -0.042750 
			CHANNELS 3 Zrotation Yrotation Xrotation
			JOINT Neck1
			{
				OFFSET -0.054170 1.746240 0.172020 
				CHANNELS 3 Zrotation Yrotation Xrotation
				JOINT Head
				{
					OFFSET 0.104070 1.761360 -0.123970 
					CHANNELS 3 Zrotation Yrotation Xrotation
					End Site
					{
						OFFSET 0.000000 0.000000 0.000000 
					}
				}
			}
			JOINT LeftArm
			{
				OFFSET 3.362410 1.200890 -0.311210 
				CHANNELS 3 Zrotation Yrotation Xrotation
				JOINT LeftForeArm
				{
					OFFSET 4.983000 -0.000000 -0.000000 
					CHANNELS 3 Zrotation Yrotation Xrotation
					JOINT LeftHand
					{
						OFFSET 3.483560 -0.000000 -0.000000 
						CHANNELS 3 Zrotation Yrotation Xrotation
						JOINT LeftHandIndex1
						{
							OFFSET 0.715260 -0.000000 -0.000000 
							CHANNELS 3 Zrotation Yrotation Xrotation
							End Site
							{
								OFFSET 0.000000 0.000000 0.000000 
							}
						}
					}
				}
			}
			JOINT RightArm
			{
				OFFSET -3.136600 1.374050 -0.404650 
				CHANNELS 3 Zrotation Yrotation Xrotation
				JOINT RightForeArm
				{
					OFFSET -5.241900 -0.000000 -0.000000 
					CHANNELS 3 Zrotation Yrotation Xrotation
					JOINT RightHand
					{
						OFFSET -3.444170 -0.000000 -0.000000 
						CHANNELS 3 Zrotation Yrotation Xrotation
						JOINT RightHandIndex1
						{
							OFFSET -0.622530 -0.000000 -0.000000 
							CHANNELS 3 Zrotation Yrotation Xrotation
							End Site
							{
								OFFSET 0.000000 0.000000 0.000000 
							}
						}
					}
				}
			}
		}
	}
}
MOTION
Frames: 15
Frame Time: 0.041667
2.024120 18.517058 -13.074471 175.489080 23.869501 -160.381727 -22.861847 -4.355476 -17.760371 -0.675968 8.821639 25.819686 -5.130895 21.243264 8.734807 0.199500 -2.876500 -7.935000 28.420257 11.751655 -43.509426 1.796546 -11.928126 25.411290 0.812760 -16.804603 18.767957 -2.338600 9.538300 -27.494100 0.013237 -2.069492 -2.981459 -0.147109 -0.762743 -4.281176 11.859864 -2.745968 -2.992402 6.713500 -0.054500 -1.277100 -80.083890 -9.320253 33.967501 100.036427 -54.785318 -73.383366 0.650836 -1.569127 53.711998 -7.125000 0.000000 0.000000 75.821575 20.105781 14.102012 -127.782351 45.050804 -97.605877 0.064180 -0.757726 12.913738 7.125000 0.000000 0.000000 
2.085645 18.542001 -13.225678 174.924639 24.516590 -160.681794 -23.559760 -3.396981 -18.048225 -0.428129 9.082220 26.588909 -4.760167 20.783293 10.758166 0.288500 -3.454300 -9.546300 27.771759 12.269900 -42.765457 1.769520 -11.847846 25.179986 1.796680 -20.151274 15.953887 -0.782400 5.646900 -15.763300 -0.067485 -2.078385 -3.004066 -0.227187 -0.758324 -4.232328 12.008245 -2.888882 -2.831685 6.878700 -0.118300 -1.167000 -80.158355 -9.133153 34.180846 100.119201 -54.803299 -73.438638 0.649041 -1.572114 53.528547 -7.125000 0.000000 0.000000 75.966623 19.603564 14.438519 -127.805428 45.070221 -97.622718 0.073401 -0.719123 12.554308 7.125000 0.000000 0.000000 
2.148833 18.553419 -13.376664 174.476788 25.078233 -160.958754 -24.077106 -2.437809 -18.450999 -0.129782 9.399029 27.516271 -4.294017 20.172778 13.172175 0.218700 -3.010800 -8.308900 27.465541 12.486380 -42.256018 1.718918 -11.839752 25.336185 1.112461 -18.418246 18.724110 -0.923400 6.122000 -17.138800 -0.130150 -2.108097 -3.035203 -0.380290 -0.772983 -4.166969 11.974133 -2.940507 -2.541480 6.868000 -0.172000 -0.997700 -80.239737 -8.990157 34.354139 100.114114 -54.812550 -73.431210 0.658287 -1.573714 53.207611 -7.125000 0.000000 0.000000 76.033697 19.212226 14.627512 -127.852607 45.069202 -97.659653 0.080269 -0.694548 12.295525 7.125000 0.000000 0.000000 
2.211689 18.543775 -13.519669 173.819905 25.560546 -161.485084 -24.700847 -1.552114 -18.927099 0.227391 9.824845 28.812561 -3.923935 19.649440 14.750296 0.033900 -1.187900 -3.266000 27.133329 12.416071 -41.705151 1.711883 -11.801326 25.681082 -0.226704 -13.079369 22.651653 -2.048700 8.966800 -25.691700 -0.195597 -2.219721 -3.038081 -0.504655 -0.821453 -4.122546 11.908334 -2.960495 -2.346676 6.801200 -0.219100 -0.935800 -80.232331 -8.946412 34.407701 99.985010 -54.815079 -73.325714 0.674021 -1.574881 52.929360 -7.125000 0.000000 0.000000 76.186348 18.838999 14.747783 -127.932835 45.060587 -97.710733 0.086620 -0.690875 12.193479 7.125000 0.000000 0.000000 
2.276872 18.536569 -13.662562 173.291156 25.994788 -161.959368 -25.136498 -0.924886 -19.590973 0.687569 10.406760 30.575301 -3.577220 19.101505 16.024084 0.010500 0.662300 1.820200 26.772607 12.559889 -40.932571 1.625393 -11.817551 25.997761 -0.235567 -12.361699 22.441505 -1.900600 8.655900 -24.724800 -0.256347 -2.300592 -3.026430 -0.672483 -0.857406 -4.019943 11.853258 -3.104091 -2.188173 6.739700 -0.312600 -0.838400 -80.191372 -8.941399 34.495058 100.059275 -54.819233 -73.383271 0.684321 -1.577131 52.701470 -7.125000 0.000000 0.000000 76.236745 18.599264 14.749273 -128.093607 45.000941 -97.830802 0.081174 -0.693135 12.039990 7.125000 0.000000 0.000000 
2.343164 18.534573 -13.813326 173.231803 26.468625 -162.207474 -25.058105 -0.516166 -20.438658 1.273786 11.095843 32.659991 -2.871350 17.902011 18.900948 0.001200 -0.225300 -0.619100 26.612493 13.176254 -39.966959 1.502349 -11.845756 26.253899 0.383731 -14.137375 20.210228 -1.103600 6.674800 -18.755500 -0.275099 -2.264598 -3.036056 -0.840108 -0.843499 -3.967790 11.772335 -3.253781 -1.974434 6.699400 -0.405300 -0.669500 -80.329310 -8.881101 34.660123 100.124303 -54.823872 -73.441098 0.694821 -1.578192 52.604246 -7.125000 0.000000 0.000000 76.136700 18.430343 14.554041 -128.263356 44.918118 -97.967473 0.068277 -0.704608 11.770691 7.125000 0.000000 0.000000 
2.404135 18.518721 -13.945467 173.638084 26.844745 -162.147376 -24.440751 -0.040087 -21.677492 1.965203 11.908115 34.948107 -2.844121 18.900717 20.110512 0.372100 3.917800 10.845500 26.930945 13.967465 -39.197020 1.430598 -11.853740 26.532496 0.537579 -14.010037 19.168795 -0.970600 6.272100 -17.575900 -0.233195 -2.224798 -3.095174 -0.932347 -0.827876 -4.173763 11.729101 -3.280476 -1.848788 6.712000 -0.436700 -0.589200 -80.595050 -8.779328 34.783580 100.055432 -54.818516 -73.400176 0.712540 -1.577186 52.631414 -7.125000 0.000000 0.000000 76.175017 18.026655 14.377302 -128.442642 44.838154 -98.122961 0.085293 -0.707488 11.238149 7.125000 0.000000 0.000000 
2.453466 18.496882 -14.086586 174.143974 27.277421 -162.178742 -23.760576 0.343512 -22.778527 2.707607 12.685307 37.387528 -2.136681 17.954828 23.062157 0.301900 3.532900 9.766200 27.582141 14.271704 -38.544775 1.345511 -11.891251 26.940455 0.575438 -13.378464 18.430765 -1.118000 6.717000 -18.879700 -0.210914 -2.122093 -3.126750 -1.229200 -0.795551 -4.357196 11.657899 -3.283987 -1.772585 6.686300 -0.458300 -0.561000 -80.879936 -8.706332 34.967227 100.062508 -54.819469 -73.415475 0.725820 -1.578830 52.708288 -7.125000 0.000000 0.000000 76.179005 17.547359 14.140171 -128.752687 44.697867 -98.383441 0.103876 -0.715786 10.825150 7.125000 0.000000 0.000000 
2.508339 18.478259 -14.226708 174.150198 27.623225 -162.472105 -23.499995 0.188613 -23.673695 3.438916 13.450020 40.012694 -1.464496 16.409873 25.090256 0.295300 3.494400 9.658400 27.801321 14.176535 -38.046291 1.223088 -11.992947 27.454330 0.884686 -13.646715 16.643416 -0.843900 5.859400 -16.377100 -0.203193 -2.093824 -3.139009 -1.364004 -0.784531 -4.436690 11.601159 -3.278238 -1.682818 6.646100 -0.469800 -0.499300 -81.232113 -8.775745 35.165061 100.045145 -54.821375 -73.405048 0.731251 -1.581062 52.882773 -7.125000 0.000000 0.000000 75.838318 17.279629 13.468526 -128.976850 44.581692 -98.569697 0.104414 -0.760633 10.926204 7.125000 0.000000 0.000000 
2.572636 18.448549 -14.355523 173.862087 27.825185 -162.942858 -23.419262 -0.386748 -24.492317 4.243788 14.264594 42.749810 -1.533877 17.026348 24.839975 1.292000 7.202000 20.315200 27.802893 13.861121 -37.579802 1.066465 -12.138361 28.110361 1.140197 -13.766859 15.054625 -0.469600 4.395400 -12.191800 -0.178473 -2.175051 -3.140901 -1.229985 -0.807989 -4.511746 11.633532 -3.285840 -1.708158 6.665700 -0.470700 -0.496100 -81.597044 -8.909956 35.225283 100.177960 -54.821444 -73.528827 0.743275 -1.579344 53.009367 -7.125000 0.000000 0.000000 75.312547 17.020117 12.855152 -129.186146 44.471058 -98.749265 0.109688 -0.784069 10.874280 7.125000 0.000000 0.000000 
2.628951 18.399329 -14.476356 173.945289 27.941637 -163.253331 -22.971626 -1.032627 -25.453463 5.081225 15.060908 45.572244 -1.237429 16.466247 25.658134 1.662800 8.125400 23.095500 28.248282 13.532339 -37.121542 0.890596 -12.308040 28.903061 1.207532 -13.240058 14.050411 -0.483300 4.458000 -12.368700 -0.139156 -2.215219 -3.120590 -1.241883 -0.826202 -4.543541 11.630391 -3.371807 -1.787649 6.658100 -0.506400 -0.511000 -81.934172 -9.016341 35.358888 100.681033 -54.829275 -73.962566 0.750466 -1.577216 53.235220 -7.125000 0.000000 0.000000 74.848738 16.822049 12.361381 -129.491473 44.309835 -99.017618 0.114498 -0.775942 10.600432 7.125000 0.000000 0.000000 
2.675178 18.331374 -14.599406 174.154104 28.134988 -163.487254 -22.478198 -1.559742 -26.574630 5.953324 15.842907 48.547445 -0.727226 14.904218 26.967848 1.490500 7.712500 21.844300 28.789335 13.208351 -36.603011 0.729219 -12.439651 29.629647 1.203967 -12.458982 13.226728 -0.848200 5.874100 -16.419600 -0.116988 -2.130623 -3.074973 -1.382384 -0.792376 -4.475914 11.669116 -3.511009 -1.900486 6.708900 -0.552400 -0.528600 -82.284823 -9.125542 35.750738 101.380291 -54.846978 -74.543771 0.744255 -1.578545 53.528642 -7.125000 0.000000 0.000000 74.305796 16.661844 11.690786 -129.831136 44.130528 -99.320276 0.120881 -0.766200 10.239982 7.125000 0.000000 0.000000 
2.720739 18.264861 -14.719907 174.142023 28.298055 -163.904542 -22.143144 -2.152107 -27.687738 6.798060 16.573596 51.576587 -0.233183 12.528916 27.835830 1.048100 6.510400 18.272600 29.152198 12.599144 -36.009477 0.582086 -12.511014 30.208505 1.208981 -11.937484 12.747433 -1.190700 6.924300 -19.491300 -0.083973 -2.158193 -3.027953 -1.376461 -0.801232 -4.463063 11.749928 -3.546293 -2.059325 6.779100 -0.542700 -0.586400 -82.583578 -9.293795 36.035898 101.919208 -54.854231 -74.979218 0.734867 -1.580226 53.478774 -7.125000 0.000000 0.000000 73.651754 16.480111 11.249231 -130.115123 43.976142 -99.577055 0.138330 -0.749806 9.869052 7.125000 0.000000 0.000000 
2.763641 18.212758 -14.829987 174.404067 28.338950 -164.274315 -21.515027 -2.849506 -28.771039 7.627142 17.251748 54.462483 0.033558 10.595239 27.965868 0.561000 4.797400 13.331500 29.847913 11.891984 -35.414117 0.434092 -12.571131 30.777537 1.237262 -11.613015 12.267201 -1.296300 7.213500 -20.349300 0.013859 -2.296269 -3.000241 -1.259875 -0.864019 -4.620813 11.740385 -3.495690 -2.201475 6.755800 -0.514300 -0.664900 -82.954668 -9.482627 36.067652 102.205920 -54.849801 -75.216737 0.730497 -1.579723 53.396824 -7.125000 0.000000 0.000000 73.006779 16.424445 10.900988 -130.160404 43.932388 -99.642405 0.150842 -0.732882 9.856710 7.125000 0.000000 0.000000 
2.803106 18.158882 -14.935411 175.029064 28.510888 -164.471464 -20.636526 -3.430883 -29.859479 8.482766 17.897665 57.160896 -0.143364 10.522613 26.630892 0.463600 4.367300 12.112500 30.828985 11.562094 -34.803029 0.270916 -12.666841 31.428221 1.310996 -11.507745 11.473665 -1.226700 7.024600 -19.788300 0.127408 -2.270202 -2.956561 -1.193040 -0.854546 -4.762871 11.676175 -3.528523 -2.446709 6.705000 -0.524900 -0.810800 -83.333259 -9.747364 36.179924 102.433017 -54.844374 -75.417095 0.734186 -1.578519 53.527053 -7.125000 0.000000 0.000000 72.351960 16.488834 10.237000 -130.112997 43.935231 -99.636061 0.153288 -0.724764 9.841929 7.125000 0.000000 0.000000 
